<svg xmlns="http://www.w3.org/2000/svg" viewBox="0 0 32 32" fill="none">
  <!-- Document Shape -->
  <path d="M6 4C6 2.89543 6.89543 2 8 2H20L26 8V28C26 29.1046 25.1046 30 24 30H8C6.89543 30 6 29.1046 6 28V4Z" fill="url(#paint0_linear)" />
  <path d="M20 2V8H26L20 2Z" fill="#E2E8F0" fill-opacity="0.8" />
  
  <!-- Shield/Lock Circle -->
  <circle cx="22" cy="22" r="8" fill="white" />
  
  <!-- Lock Icon -->
  <path d="M22 18C20.8954 18 20 18.8954 20 20V21H19C18.4477 21 18 21.4477 18 22V25C18 25.5523 18.4477 26 19 26H25C25.5523 26 26 25.5523 26 25V22C26 21.4477 25.5523 21 25 21H24V20C24 18.8954 23.1046 18 22 18ZM21 20C21 19.4477 21.4477 19 22 19C22.5523 19 23 19.4477 23 20V21H21V20Z" fill="#2563EB" />

  <defs>
    <linearGradient id="paint0_linear" x1="6" y1="2" x2="26" y2="30" gradientUnits="userSpaceOnUse">
      <stop stop-color="#2563EB" />
      <stop offset="1" stop-color="#4F46E5" />
    </linearGradient>
  </defs>
</svg>